<svg width="372" height="326" viewBox="0 0 372 326" fill="none" xmlns="http://www.w3.org/2000/svg">
<rect x="88" width="147" height="35" rx="17.5" fill="#3092EC"/>
<rect x="225" y="48" width="147" height="35" rx="17.5" fill="#3092EC"/>
<rect x="32" y="96" width="147" height="35" rx="17.5" fill="#FCB248"/>
<rect x="249" width="59" height="35" rx="17.5" fill="#FCB248"/>
<rect x="46" y="48" width="42" height="35" rx="17.5" fill="#26FB9A"/>
<rect x="106" y="48" width="93" height="35" rx="17.5" fill="#F15B28"/>
<rect x="193" y="276.089" width="147" height="35" rx="17.5" transform="rotate(180 193 276.089)" fill="#3092EC"/>
<rect x="369.98" y="276" width="42" height="35" rx="17.5" transform="rotate(180 369.98 276)" fill="#26FB9A"/>
<rect x="298.98" y="276" width="93" height="35" rx="17.5" transform="rotate(180 298.98 276)" fill="#F15B28"/>
<rect y="144" width="42" height="35" rx="17.5" fill="#26FB9A"/>
<rect x="60" y="144" width="93" height="35" rx="17.5" fill="#F15B28"/>
<rect x="184.992" y="227" width="42" height="35" rx="17.5" transform="rotate(180 184.992 227)" fill="#FCB248"/>
<rect x="125" y="228.197" width="93" height="35" rx="17.5" transform="rotate(180 125 228.197)" fill="#F15B28"/>
<rect x="308" y="325" width="165" height="35" rx="17.5" transform="rotate(180 308 325)" fill="#3092EC"/>
<rect x="125" y="326" width="37" height="35" rx="17.5" transform="rotate(180 125 326)" fill="#FCB248"/>
</svg>
