<svg width="41" height="28" viewBox="0 0 41 28" fill="none" xmlns="http://www.w3.org/2000/svg">
<path d="M36.3457 26.9121C36.3926 26.9941 36.416 27.0938 36.416 27.2109C36.416 27.3867 36.3516 27.5391 36.2227 27.668C36.1055 27.7969 35.9473 27.8613 35.748 27.8613C35.6191 27.8613 35.502 27.832 35.3965 27.7734C35.3027 27.7148 35.2266 27.627 35.168 27.5098C34.9453 27.0762 34.7461 26.5371 34.5703 25.8926C34.4062 25.2363 34.2598 24.5098 34.1309 23.7129C34.0137 22.916 33.9141 22.0605 33.832 21.1465C33.7617 20.2207 33.7031 19.2656 33.6562 18.2812C32.7773 18.3984 31.7871 18.5273 30.6855 18.668C29.5957 18.8086 28.3477 18.9727 26.9414 19.1602C25.957 19.3008 24.9551 19.4238 23.9355 19.5293C21.4277 22.2598 18.7852 24.334 16.0078 25.752C13.2422 27.1582 10.4648 27.8613 7.67578 27.8613C6.43359 27.8613 5.35547 27.7383 4.44141 27.4922C3.53906 27.2578 2.78906 26.9941 2.19141 26.7012C1.60547 26.3965 1.16602 26.1152 0.873047 25.8574C0.568359 25.5996 0.404297 25.459 0.380859 25.4355C0.263672 25.3184 0.205078 25.166 0.205078 24.9785C0.205078 24.791 0.269531 24.6328 0.398438 24.5039C0.527344 24.375 0.679688 24.3105 0.855469 24.3105C1.05469 24.3105 1.21875 24.3809 1.34766 24.5215C1.37109 24.5449 1.51172 24.668 1.76953 24.8906C2.02734 25.1016 2.4082 25.3301 2.91211 25.5762C3.42773 25.8223 4.07812 26.0449 4.86328 26.2441C5.64844 26.4434 6.58008 26.543 7.6582 26.543C9.13477 26.543 10.5469 26.3438 11.8945 25.9453C13.2422 25.5469 14.5137 25.0312 15.709 24.3984C16.916 23.7539 18.0352 23.0215 19.0664 22.2012C20.1094 21.3809 21.0527 20.5488 21.8965 19.7051C21.0645 19.7754 20.2383 19.8281 19.418 19.8633C18.5977 19.8984 17.7891 19.916 16.9922 19.916C15.4219 19.916 13.9277 19.8281 12.5098 19.6523C11.0918 19.4766 9.84375 19.1836 8.76562 18.7734C7.6875 18.3516 6.82617 17.7949 6.18164 17.1035C5.54883 16.4121 5.23242 15.5508 5.23242 14.5195C5.23242 14.0508 5.32617 13.582 5.51367 13.1133C5.71289 12.6445 5.94727 12.2227 6.2168 11.8477C6.48633 11.4609 6.76758 11.1504 7.06055 10.916C7.35352 10.6699 7.60547 10.5469 7.81641 10.5469C7.98047 10.5469 8.13281 10.6055 8.27344 10.7227C8.41406 10.8398 8.48438 10.998 8.48438 11.1973C8.48438 11.3027 8.46094 11.4082 8.41406 11.5137C8.36719 11.6074 8.29688 11.6836 8.20312 11.7422C8.17969 11.7656 8.08008 11.8477 7.9043 11.9883C7.72852 12.1289 7.54102 12.3223 7.3418 12.5684C7.14258 12.8027 6.96094 13.0898 6.79688 13.4297C6.63281 13.7578 6.55078 14.1152 6.55078 14.502C6.55078 15.1699 6.7793 15.7617 7.23633 16.2773C7.70508 16.7812 8.37891 17.209 9.25781 17.5605C10.1484 17.9004 11.2383 18.1582 12.5273 18.334C13.8164 18.5098 15.2871 18.5977 16.9395 18.5977C17.8887 18.5977 18.8906 18.5684 19.9453 18.5098C21 18.4512 22.1133 18.3633 23.2852 18.2461C23.8477 17.625 24.3457 17.0391 24.7793 16.4883C25.2129 15.9375 25.582 15.4453 25.8867 15.0117C26.3906 14.2969 26.918 13.5352 27.4688 12.7266C28.0195 11.918 28.5645 11.0977 29.1035 10.2656C29.6543 9.43359 30.1875 8.61328 30.7031 7.80469C31.2305 6.98437 31.7227 6.2168 32.1797 5.50195C32.6367 4.77539 33.0469 4.11914 33.4102 3.5332C33.7734 2.93555 34.0723 2.44336 34.3066 2.05664C34.377 1.74023 34.4824 1.45313 34.623 1.19531C34.7637 0.925781 34.9922 0.791016 35.3086 0.791016C35.4844 0.791016 35.6543 0.867187 35.8184 1.01953C35.9824 1.16016 36.0645 1.3418 36.0645 1.56445C36.0645 1.72852 36.0059 1.9043 35.8887 2.0918C35.7715 2.2793 35.6602 2.4375 35.5547 2.56641C35.5195 2.78906 35.4609 3.26367 35.3789 3.99023C35.3086 4.7168 35.2324 5.60742 35.1504 6.66211C35.0801 7.70508 35.0156 8.85938 34.957 10.125C34.9102 11.3789 34.8867 12.6504 34.8867 13.9395C34.8867 14.4199 34.8867 14.8945 34.8867 15.3633C34.8867 15.832 34.8984 16.3066 34.9219 16.7871C36.6797 16.5645 37.9629 16.4121 38.7715 16.3301C39.5801 16.2363 40.0078 16.1895 40.0547 16.1895C40.207 16.1895 40.3535 16.2539 40.4941 16.3828C40.6465 16.5 40.7227 16.6582 40.7227 16.8574C40.7227 17.0215 40.6641 17.168 40.5469 17.2969C40.4414 17.4141 40.3008 17.4844 40.125 17.5078C39.9141 17.5312 39.668 17.5605 39.3867 17.5957C39.1055 17.6309 38.7598 17.6719 38.3496 17.7188C37.9395 17.7656 37.459 17.8242 36.9082 17.8945C36.3574 17.9531 35.7129 18.0293 34.9746 18.123C35.0098 19.084 35.0625 20.0098 35.1328 20.9004C35.2148 21.7793 35.3086 22.5996 35.4141 23.3613C35.5312 24.123 35.666 24.8086 35.8184 25.418C35.9707 26.0273 36.1465 26.5254 36.3457 26.9121ZM26.7656 17.8418C28.1484 17.6543 29.4023 17.4902 30.5273 17.3496C31.6641 17.1973 32.6895 17.0625 33.6035 16.9453C33.5918 16.4414 33.5801 15.9375 33.5684 15.4336C33.5684 14.9297 33.5684 14.4199 33.5684 13.9043C33.5684 12.252 33.5977 10.6758 33.6562 9.17578C33.7148 7.66406 33.7969 6.35156 33.9023 5.23828C33.4336 5.97656 32.9121 6.79688 32.3379 7.69922C31.7754 8.58984 31.1895 9.50391 30.5801 10.4414C29.9707 11.3672 29.3555 12.2871 28.7344 13.2012C28.1133 14.1152 27.5215 14.9707 26.959 15.7676C26.6777 16.166 26.3906 16.5527 26.0977 16.9277C25.8047 17.3027 25.5117 17.6719 25.2188 18.0352C25.4766 18.0117 25.7285 17.9824 25.9746 17.9473C26.2324 17.9121 26.4961 17.877 26.7656 17.8418Z" fill="#15FFBC"/>
</svg>
