<svg width="1881" height="920" viewBox="0 0 1881 920" fill="none" xmlns="http://www.w3.org/2000/svg">
<path d="M437.5 0C195.898 0 0 205.935 0 459.915C0 713.894 195.898 919.829 437.5 919.829C679.102 919.829 875 713.894 875 459.915C875 205.935 679.102 0 437.5 0ZM647.754 346.681C648.047 351.506 648.047 356.536 648.047 361.464C648.047 512.168 538.867 685.766 339.355 685.766C277.832 685.766 220.801 666.979 172.754 634.641C181.543 635.668 189.941 636.078 198.926 636.078C249.707 636.078 296.387 618.01 333.594 587.418C285.938 586.391 245.898 553.54 232.227 508.37C248.926 510.936 263.965 510.936 281.152 506.317C256.614 501.076 234.558 487.066 218.732 466.668C202.906 446.269 194.286 420.74 194.336 394.418V392.981C208.691 401.501 225.586 406.737 243.262 407.456C228.403 397.045 216.217 382.942 207.784 366.395C199.352 349.848 194.934 331.37 194.922 312.598C194.922 291.348 200.195 271.945 209.668 255.109C236.905 290.356 270.892 319.183 309.42 339.717C347.949 360.252 390.157 372.033 433.301 374.297C417.969 296.789 473.047 234.064 539.258 234.064C570.508 234.064 598.633 247.82 618.457 269.995C642.969 265.17 666.406 255.52 687.305 242.584C679.199 268.968 662.207 291.245 639.648 305.309C661.523 302.846 682.617 296.481 702.148 287.549C687.402 310.34 668.945 330.564 647.754 346.681V346.681Z" fill="#00ACEE"/>
<path d="M1443.5 0C1685.1 0 1881 205.935 1881 459.915C1881 713.894 1685.1 919.829 1443.5 919.829C1201.9 919.829 1006 713.894 1006 459.915C1006 205.935 1201.9 0 1443.5 0ZM1233.25 346.681C1232.95 351.506 1232.95 356.536 1232.95 361.464C1232.95 512.168 1342.13 685.766 1541.64 685.766C1603.17 685.766 1660.2 666.979 1708.25 634.641C1699.46 635.668 1691.06 636.078 1682.07 636.078C1631.29 636.078 1584.61 618.01 1547.41 587.418C1595.06 586.391 1635.1 553.54 1648.77 508.37C1632.07 510.936 1617.04 510.936 1599.85 506.317C1624.39 501.076 1646.44 487.066 1662.27 466.668C1678.09 446.269 1686.71 420.74 1686.66 394.418V392.981C1672.31 401.501 1655.41 406.737 1637.74 407.456C1652.6 397.045 1664.78 382.942 1673.22 366.395C1681.65 349.848 1686.07 331.37 1686.08 312.598C1686.08 291.348 1680.8 271.945 1671.33 255.109C1644.1 290.356 1610.11 319.183 1571.58 339.717C1533.05 360.252 1490.84 372.033 1447.7 374.297C1463.03 296.789 1407.95 234.064 1341.74 234.064C1310.49 234.064 1282.37 247.82 1262.54 269.995C1238.03 265.17 1214.59 255.52 1193.7 242.584C1201.8 268.968 1218.79 291.245 1241.35 305.309C1219.48 302.846 1198.38 296.481 1178.85 287.549C1193.6 310.34 1212.05 330.564 1233.25 346.681V346.681Z" fill="#00ACEE"/>
<rect x="796" y="308" width="282" height="259" fill="#00ACEE"/>
</svg>
